<svg width="214" height="232" viewBox="0 0 214 232" fill="none" xmlns="http://www.w3.org/2000/svg">
<path d="M69.466 112.782V150.376H182.946V0H31.6394V75.188H69.466V37.594H145.119V112.782H69.466Z" fill="url(#paint0_linear_462_182)"/>
<path d="M15.5819 231.032H0L23.7423 162.679H42.481L66.1897 231.032H50.6078L33.3803 178.299H32.843L15.5819 231.032ZM14.6081 204.165H51.4137V215.446H14.6081V204.165Z" fill="url(#paint1_linear_462_182)"/>
<path d="M107.277 209.205V179.768H121.583V231.032H107.848V221.72H107.311C106.146 224.724 104.21 227.138 101.501 228.963C98.8145 230.787 95.5346 231.7 91.6615 231.7C88.2138 231.7 85.1802 230.921 82.5609 229.363C79.9415 227.806 77.893 225.592 76.4154 222.722C74.9602 219.851 74.2214 216.414 74.199 212.409V179.768H88.5048V209.872C88.5272 212.898 89.3444 215.29 90.9563 217.048C92.5682 218.806 94.7287 219.685 97.4376 219.685C99.1615 219.685 100.773 219.295 102.273 218.516C103.773 217.715 104.982 216.536 105.9 214.979C106.84 213.421 107.299 211.496 107.277 209.205Z" fill="url(#paint2_linear_462_182)"/>
<path d="M133.026 231.032V179.768H146.895V188.712H147.432C148.373 185.53 149.951 183.127 152.168 181.503C154.384 179.857 156.936 179.033 159.824 179.033C160.541 179.033 161.313 179.078 162.141 179.167C162.97 179.256 163.697 179.378 164.324 179.534V192.15C163.653 191.95 162.723 191.772 161.537 191.616C160.35 191.46 159.264 191.382 158.279 191.382C156.175 191.382 154.294 191.838 152.638 192.751C151.003 193.641 149.705 194.887 148.742 196.489C147.802 198.091 147.332 199.937 147.332 202.029V231.032H133.026Z" fill="url(#paint3_linear_462_182)"/>
<path d="M184.952 232C181.661 232 178.728 231.433 176.153 230.298C173.579 229.141 171.541 227.439 170.041 225.191C168.564 222.922 167.825 220.096 167.825 216.714C167.825 213.866 168.351 211.474 169.403 209.538C170.456 207.603 171.888 206.045 173.702 204.866C175.515 203.687 177.575 202.797 179.881 202.196C182.209 201.595 184.65 201.172 187.202 200.928C190.202 200.616 192.62 200.327 194.455 200.06C196.291 199.771 197.623 199.348 198.452 198.792C199.28 198.235 199.694 197.412 199.694 196.322V196.122C199.694 194.008 199.023 192.372 197.679 191.215C196.358 190.058 194.478 189.48 192.038 189.48C189.463 189.48 187.414 190.047 185.892 191.182C184.37 192.294 183.362 193.696 182.87 195.387L169.638 194.319C170.31 191.204 171.631 188.512 173.601 186.242C175.571 183.951 178.112 182.193 181.224 180.969C184.358 179.723 187.985 179.1 192.105 179.1C194.97 179.1 197.713 179.434 200.332 180.101C202.974 180.769 205.314 181.803 207.351 183.205C209.41 184.607 211.034 186.409 212.22 188.612C213.407 190.793 214 193.407 214 196.455V231.032H200.433V223.923H200.03C199.202 225.525 198.093 226.938 196.705 228.162C195.317 229.363 193.649 230.309 191.702 230.999C189.754 231.666 187.504 232 184.952 232ZM189.049 222.188C191.153 222.188 193.011 221.776 194.623 220.953C196.235 220.107 197.5 218.972 198.418 217.548C199.336 216.124 199.795 214.511 199.795 212.709V207.269C199.347 207.558 198.731 207.825 197.948 208.07C197.187 208.292 196.325 208.504 195.362 208.704C194.399 208.882 193.437 209.049 192.474 209.205C191.511 209.338 190.638 209.461 189.855 209.572C188.176 209.817 186.709 210.206 185.455 210.74C184.202 211.274 183.228 211.997 182.534 212.909C181.84 213.799 181.493 214.912 181.493 216.247C181.493 218.183 182.198 219.662 183.608 220.686C185.041 221.687 186.855 222.188 189.049 222.188Z" fill="url(#paint4_linear_462_182)"/>
<defs>
<linearGradient id="paint0_linear_462_182" x1="0" y1="0" x2="218.29" y2="4.10926" gradientUnits="userSpaceOnUse">
<stop stop-color="#CA5CF5"/>
<stop offset="1" stop-color="#7405B4"/>
</linearGradient>
<linearGradient id="paint1_linear_462_182" x1="0" y1="0" x2="218.29" y2="4.10926" gradientUnits="userSpaceOnUse">
<stop stop-color="#CA5CF5"/>
<stop offset="1" stop-color="#7405B4"/>
</linearGradient>
<linearGradient id="paint2_linear_462_182" x1="0" y1="0" x2="218.29" y2="4.10926" gradientUnits="userSpaceOnUse">
<stop stop-color="#CA5CF5"/>
<stop offset="1" stop-color="#7405B4"/>
</linearGradient>
<linearGradient id="paint3_linear_462_182" x1="0" y1="0" x2="218.29" y2="4.10926" gradientUnits="userSpaceOnUse">
<stop stop-color="#CA5CF5"/>
<stop offset="1" stop-color="#7405B4"/>
</linearGradient>
<linearGradient id="paint4_linear_462_182" x1="0" y1="0" x2="218.29" y2="4.10926" gradientUnits="userSpaceOnUse">
<stop stop-color="#CA5CF5"/>
<stop offset="1" stop-color="#7405B4"/>
</linearGradient>
</defs>
</svg>
