<svg width="199" height="146" viewBox="0 0 199 146" fill="none" xmlns="http://www.w3.org/2000/svg">
<path d="M196.906 12.2499C194.8 11.2248 193.888 13.1841 192.661 14.1845C192.238 14.5069 191.882 14.9285 191.525 15.3088C188.441 18.5909 184.842 20.7403 180.141 20.4841C173.267 20.1038 167.397 22.2532 162.206 27.4946C161.103 21.0297 157.439 17.1772 151.867 14.697C148.948 13.4073 145.996 12.1259 143.948 9.32336C142.522 7.33097 142.133 5.1071 141.419 2.92457C140.963 1.60182 140.507 0.254265 138.99 0.0310516C137.332 -0.225231 136.685 1.15539 136.038 2.31279C133.443 7.04162 132.44 12.2499 132.539 17.5244C132.763 29.3961 137.788 38.8537 147.779 45.5749C148.915 46.3438 149.205 47.1209 148.849 48.2453C148.169 50.5601 147.356 52.8087 146.643 55.1318C146.187 56.6116 145.507 56.9258 143.915 56.2892C138.536 53.9843 133.65 50.6728 129.521 46.5339C122.415 39.6887 115.998 32.1325 107.988 26.2132C106.132 24.846 104.227 23.5471 102.275 22.3194C94.1081 14.4077 103.353 7.90968 105.492 7.14083C107.731 6.33064 106.263 3.56941 99.0333 3.60247C91.8031 3.63554 85.1865 6.04129 76.754 9.25722C75.501 9.73599 74.2117 10.1147 72.8985 10.3898C65.0185 8.90946 56.9593 8.62516 48.9941 9.54658C33.3646 11.2827 20.8859 18.657 11.7072 31.2314C0.679485 46.3438 -1.91575 63.523 1.25989 81.4297C4.60137 100.312 14.2693 115.945 29.1193 128.164C44.525 140.838 62.2605 147.046 82.5 145.856C94.788 145.153 108.477 143.508 123.908 130.479C127.805 132.413 131.884 133.182 138.667 133.761C143.89 134.249 148.915 133.513 152.804 132.703C158.898 131.413 158.475 125.783 156.278 124.758C138.41 116.458 142.332 119.839 138.758 117.103C147.845 106.388 161.526 95.2607 166.883 59.2075C167.297 56.3388 166.941 54.5366 166.883 52.2218C166.85 50.8163 167.173 50.2624 168.79 50.1054C173.276 49.6414 177.627 48.3074 181.6 46.1785C193.175 39.8706 197.851 29.5201 198.954 17.1028C199.12 15.2013 198.921 13.2503 196.906 12.2499ZM96.0235 124.006C78.7025 110.431 70.3032 105.958 66.8374 106.149C63.5871 106.347 64.1758 110.042 64.8889 112.456C65.6351 114.837 66.6052 116.474 67.965 118.566C68.9103 119.946 69.557 122.005 67.0281 123.551C61.4479 126.99 51.7551 122.394 51.2991 122.17C40.0144 115.54 30.5704 106.793 23.9289 94.8308C17.5112 83.3146 13.7801 70.9635 13.1665 57.7773C13.0007 54.5862 13.9376 53.4618 17.1215 52.8831C21.3014 52.0856 25.5841 51.9767 29.7992 52.5607C47.4767 55.1401 62.5175 63.0187 75.1372 75.4939C82.3342 82.6036 87.7817 91.094 93.3951 99.3943C99.365 108.207 105.783 116.607 113.958 123.485C116.843 125.899 119.14 127.734 121.346 129.082C114.696 129.826 103.602 129.991 96.0235 124.006ZM104.315 70.765C104.314 70.3544 104.412 69.9495 104.603 69.5855C104.794 69.2214 105.07 68.9091 105.409 68.6755C105.748 68.4419 106.138 68.2941 106.547 68.2447C106.956 68.1954 107.371 68.2461 107.756 68.3924C108.246 68.5678 108.67 68.8915 108.967 69.3183C109.264 69.7451 109.421 70.2537 109.414 70.7733C109.415 71.109 109.349 71.4416 109.22 71.7517C109.091 72.0617 108.902 72.3431 108.662 72.5793C108.423 72.8155 108.139 73.0019 107.827 73.1276C107.515 73.2533 107.181 73.3157 106.844 73.3113C106.51 73.3125 106.179 73.2472 105.87 73.1192C105.562 72.9912 105.282 72.8032 105.047 72.5661C104.812 72.3289 104.628 72.0475 104.503 71.7383C104.379 71.429 104.309 71.0982 104.315 70.765ZM130.102 83.9595C128.443 84.6291 126.793 85.2078 125.21 85.2822C122.827 85.365 120.489 84.6231 118.593 83.1824C116.321 81.2809 114.696 80.2227 114.016 76.9158C113.782 75.2998 113.826 73.6557 114.149 72.0547C114.729 69.3514 114.082 67.6153 112.167 66.0445C110.617 64.7548 108.635 64.3993 106.462 64.3993C105.719 64.3563 104.996 64.1351 104.356 63.7545C103.444 63.308 102.698 62.1837 103.411 60.7948C103.643 60.3484 104.738 59.2571 105.003 59.0587C107.955 57.3887 111.363 57.9344 114.505 59.191C117.424 60.3815 119.629 62.564 122.805 65.6559C126.047 69.3844 126.636 70.4178 128.485 73.2121C129.944 75.4029 131.271 77.6516 132.174 80.2227C132.73 81.8348 132.017 83.1493 130.102 83.9595Z" fill="#4D6BFE"/>
</svg>
