<svg width="20" height="20" viewBox="0 0 20 20" fill="none" xmlns="http://www.w3.org/2000/svg">
<path d="M18.9984 9.50466L16.8219 8.8031C15.4297 8.34373 14.614 7.21716 14.2312 5.80154L13.2734 1.13591C13.2484 1.04373 13.1875 0.920288 13 0.920288C12.8422 0.920288 12.7515 1.04373 12.7265 1.13591L11.7687 5.8031C11.3844 7.21873 10.5703 8.34529 9.17811 8.80466L7.00154 9.50623C6.69373 9.60623 6.68904 10.0406 6.99529 10.1453L9.18748 10.9C10.575 11.3609 11.3844 12.4859 11.7687 13.8953L12.7281 18.5094C12.7531 18.6015 12.8047 18.7672 13.0015 18.7672C13.2094 18.7672 13.25 18.6015 13.275 18.5094L14.2344 13.8953C14.6187 12.4844 15.4281 11.3594 16.8156 10.9L19.0078 10.1453C19.3109 10.039 19.3062 9.60466 18.9984 9.50466Z" fill="#CA5CF5"/>
<path d="M19.2047 9.70001C19.1703 9.61407 19.1031 9.53907 18.9984 9.5047L16.8219 8.80314C15.4297 8.34376 14.6141 7.2172 14.2312 5.80157L13.2734 1.13595C13.2594 1.08282 13.2094 0.98595 13.1516 0.957825L13.4609 5.64064C13.6906 7.77814 13.8875 8.78439 15.5937 9.07814C17.0594 9.33126 18.7547 9.62189 19.2047 9.70001Z" fill="#E5A3FF"/>
<path d="M19.2094 9.94373L15.4344 10.8094C14.1047 11.1469 13.3719 11.9172 13.3719 13.9328L13.0016 18.7672C13.1281 18.7547 13.2313 18.6859 13.275 18.5094L14.2344 13.8953C14.6188 12.4844 15.4281 11.3594 16.8156 10.9L19.0078 10.1453C19.111 10.1078 19.1766 10.0312 19.2094 9.94373Z" fill="#7405B4"/>
<path d="M6.53279 13.5641C5.23122 13.1344 5.11247 12.65 4.89372 11.8328L4.34841 9.92034C4.3156 9.7969 3.99372 9.7969 3.95935 9.92034L3.58904 11.6875C3.36872 12.5016 2.89997 13.1485 2.09997 13.4125L0.824974 13.9656C0.648411 14.0235 0.645286 14.2735 0.821849 14.3328L2.10622 14.7875C2.9031 15.0516 3.36872 15.6985 3.5906 16.5094L3.96091 18.2C3.99529 18.3235 4.3156 18.3235 4.34841 18.2L4.78279 16.5172C5.0031 15.7016 5.3406 15.0532 6.42341 14.7875L7.62966 14.3328C7.80622 14.2719 7.80466 14.0219 7.62654 13.9641L6.53279 13.5641Z" fill="#CA5CF5"/>
<path d="M4.45151 11.8047C4.58433 13.0328 4.65151 13.3734 5.64683 13.6281L7.72026 14.0328C7.69839 14.0031 7.66714 13.9781 7.62495 13.9656L6.5312 13.5641C5.38901 13.1734 5.07339 12.6766 4.85933 11.6828C4.64526 10.6891 4.41714 10.0406 4.41714 10.0406C4.33745 9.82656 4.22339 9.8375 4.22339 9.8375L4.45151 11.8047Z" fill="#E5A3FF"/>
<path d="M4.48906 16.0922C4.48906 14.9344 5.12188 14.3609 6.12813 14.3609L7.69375 14.2969C7.69375 14.2969 7.60313 14.4172 7.44531 14.4547L6.42344 14.7875C5.55625 15.1359 5.16094 15.3109 4.89219 16.4969C4.89219 16.4969 4.54531 17.8766 4.47969 18.0219C4.38906 18.225 4.28125 18.2672 4.28125 18.2672L4.48906 16.0922Z" fill="#7405B4"/>
<path d="M9.33437 4.3969C9.42187 4.36721 9.41874 4.24221 9.32968 4.21721L8.12343 3.89221C7.99936 3.85857 7.8861 3.79341 7.79466 3.70306C7.70321 3.61271 7.63669 3.50024 7.60156 3.37659L7.12656 1.41565C7.10312 1.32034 6.96718 1.32034 6.94374 1.41721L6.49687 3.37034C6.4631 3.4974 6.39608 3.61317 6.30271 3.70572C6.20933 3.79827 6.09298 3.86426 5.96562 3.8969L4.76718 4.20784C4.67812 4.23128 4.67187 4.35628 4.75937 4.38753L6.02343 4.82503C6.24999 4.90315 6.42499 5.08753 6.49374 5.31721L6.94531 7.12815C6.96874 7.2219 7.10312 7.22346 7.12656 7.12815L7.59374 5.31096C7.62834 5.19756 7.68948 5.09403 7.77209 5.00898C7.8547 4.92392 7.95639 4.85979 8.06874 4.8219L9.33437 4.3969Z" fill="#7405B4"/>
<path d="M7.0343 1.13874C7.13379 1.13825 7.26488 1.20079 7.30434 1.36122L7.30451 1.362L7.77822 3.31756C7.80302 3.40282 7.8499 3.48298 7.91689 3.54917C7.98482 3.61629 8.07076 3.66629 8.167 3.69238L9.37298 4.01735L9.37384 4.01754L9.37465 4.0178C9.49728 4.05222 9.57913 4.16711 9.58252 4.29939C9.58592 4.43195 9.50968 4.5523 9.38802 4.59358L9.3875 4.59371L8.12206 5.01858L8.12212 5.01864C8.03525 5.04794 7.95834 5.09696 7.89713 5.15999C7.83698 5.22192 7.79391 5.29533 7.76946 5.37336L7.30376 7.18475L7.3037 7.18469C7.26362 7.34338 7.13387 7.40509 7.03511 7.40461C6.93682 7.40412 6.80734 7.34179 6.76772 7.18334L6.76766 7.18321L6.31752 5.37817C6.26836 5.21874 6.14255 5.08127 5.96895 5.02141L5.96878 5.02134L4.70472 4.58382L4.70311 4.5833C4.58123 4.53977 4.50679 4.41722 4.51293 4.28417C4.51899 4.15268 4.60236 4.03994 4.72483 4.00771L4.72541 4.00758L5.92384 3.69662L5.9243 3.69649C6.02295 3.67121 6.11105 3.62057 6.18023 3.552C6.24859 3.48424 6.29565 3.40187 6.31936 3.31448L6.76507 1.36636L6.76541 1.36502L6.7657 1.3636C6.80444 1.20353 6.93413 1.13924 7.0343 1.13874ZM6.67461 3.42492L6.67364 3.42871C6.62959 3.59447 6.5429 3.7427 6.4252 3.85936C6.30774 3.97579 6.16323 4.05704 6.00733 4.09708L6.00738 4.09714L5.17002 4.31436L6.0779 4.6286L6.10377 4.63798C6.36117 4.73563 6.5684 4.94888 6.65987 5.22436L6.66862 5.25212L6.67012 5.25707L6.67133 5.26208L7.03724 6.72943L7.41651 5.25424L7.41772 5.24949L7.41916 5.24473C7.46412 5.09736 7.54294 4.96507 7.64703 4.8579C7.75103 4.75082 7.87752 4.67155 8.01536 4.62506L8.01559 4.625L8.92491 4.31963L8.08012 4.092L8.07983 4.09194C7.92794 4.05075 7.78733 3.97049 7.67238 3.85692C7.55731 3.74323 7.47151 3.59956 7.42579 3.43867L7.42458 3.43443L7.42354 3.43019L7.03776 1.83762L6.67461 3.42492Z" fill="#7405B4"/>
</svg>
