<svg width="305" height="110" viewBox="0 0 305 110" fill="none" xmlns="http://www.w3.org/2000/svg">
<path d="M160.762 79.0625H149.435L166.694 29.0625H180.316L197.551 79.0625H186.224L173.701 40.4883H173.31L160.762 79.0625ZM160.054 59.4092H186.81V67.6611H160.054V59.4092Z" fill="url(#paint0_linear_306_162)"/>
<path d="M227.419 63.0957V41.5625H237.818V79.0625H227.834V72.251H227.443C226.597 74.4482 225.189 76.2142 223.22 77.5488C221.267 78.8835 218.883 79.5508 216.067 79.5508C213.561 79.5508 211.356 78.9811 209.452 77.8418C207.548 76.7025 206.059 75.083 204.984 72.9834C203.927 70.8838 203.389 68.3691 203.373 65.4395V41.5625H213.773V63.584C213.789 65.7975 214.383 67.5472 215.555 68.833C216.727 70.1188 218.297 70.7617 220.266 70.7617C221.519 70.7617 222.691 70.4769 223.782 69.9072C224.872 69.3213 225.751 68.4587 226.418 67.3193C227.102 66.18 227.435 64.7721 227.419 63.0957Z" fill="url(#paint1_linear_306_162)"/>
<path d="M246.137 79.0625V41.5625H256.219V48.1055H256.61C257.293 45.778 258.44 44.0202 260.052 42.832C261.663 41.6276 263.518 41.0254 265.617 41.0254C266.138 41.0254 266.7 41.0579 267.302 41.123C267.904 41.1882 268.433 41.2777 268.889 41.3916V50.6201C268.4 50.4736 267.725 50.3434 266.862 50.2295C266 50.1156 265.211 50.0586 264.495 50.0586C262.965 50.0586 261.598 50.3923 260.393 51.0596C259.205 51.7106 258.261 52.6221 257.562 53.7939C256.878 54.9658 256.536 56.3167 256.536 57.8467V79.0625H246.137Z" fill="url(#paint2_linear_306_162)"/>
<path d="M283.884 79.7705C281.491 79.7705 279.359 79.3555 277.488 78.5254C275.616 77.679 274.135 76.4339 273.045 74.79C271.971 73.1299 271.434 71.0628 271.434 68.5889C271.434 66.5055 271.816 64.7559 272.581 63.3398C273.346 61.9238 274.387 60.7845 275.706 59.9219C277.024 59.0592 278.521 58.4082 280.197 57.9687C281.89 57.5293 283.664 57.2201 285.519 57.041C287.7 56.8132 289.458 56.6016 290.792 56.4062C292.127 56.1947 293.095 55.8854 293.697 55.4785C294.299 55.0716 294.601 54.4694 294.601 53.6719V53.5254C294.601 51.9792 294.112 50.7829 293.136 49.9365C292.176 49.0902 290.809 48.667 289.035 48.667C287.163 48.667 285.674 49.082 284.567 49.9121C283.461 50.7259 282.728 51.7513 282.37 52.9883L272.752 52.207C273.24 49.9284 274.2 47.959 275.632 46.2988C277.065 44.6224 278.912 43.3366 281.174 42.4414C283.452 41.5299 286.089 41.0742 289.083 41.0742C291.167 41.0742 293.16 41.3184 295.064 41.8066C296.985 42.2949 298.685 43.0518 300.166 44.0771C301.664 45.1025 302.844 46.4209 303.706 48.0322C304.569 49.6273 305 51.5397 305 53.7695V79.0625H295.138V73.8623H294.845C294.242 75.0342 293.437 76.0677 292.428 76.9629C291.419 77.8418 290.206 78.5335 288.79 79.0381C287.375 79.5264 285.739 79.7705 283.884 79.7705ZM286.862 72.5928C288.392 72.5928 289.743 72.2917 290.914 71.6895C292.086 71.071 293.006 70.2409 293.673 69.1992C294.34 68.1576 294.674 66.9775 294.674 65.6592V61.6797C294.348 61.8913 293.901 62.0866 293.331 62.2656C292.778 62.4284 292.151 62.583 291.451 62.7295C290.752 62.8597 290.052 62.9818 289.352 63.0957C288.652 63.1934 288.017 63.2829 287.448 63.3643C286.227 63.5433 285.161 63.8281 284.25 64.2187C283.338 64.6094 282.631 65.1383 282.126 65.8057C281.622 66.4567 281.369 67.2705 281.369 68.2471C281.369 69.6631 281.882 70.7454 282.907 71.4941C283.949 72.2266 285.267 72.5928 286.862 72.5928Z" fill="url(#paint3_linear_306_162)"/>
<path d="M27.4976 82.5V110H109.99V0H0V55H27.4976V27.5H82.4927V82.5H27.4976Z" fill="url(#paint4_linear_306_162)"/>
<defs>
<linearGradient id="paint0_linear_306_162" x1="0" y1="0" x2="310.231" y2="17.5548" gradientUnits="userSpaceOnUse">
<stop stop-color="#CA5CF5"/>
<stop offset="1" stop-color="#7405B4"/>
</linearGradient>
<linearGradient id="paint1_linear_306_162" x1="0" y1="0" x2="310.231" y2="17.5548" gradientUnits="userSpaceOnUse">
<stop stop-color="#CA5CF5"/>
<stop offset="1" stop-color="#7405B4"/>
</linearGradient>
<linearGradient id="paint2_linear_306_162" x1="0" y1="0" x2="310.231" y2="17.5548" gradientUnits="userSpaceOnUse">
<stop stop-color="#CA5CF5"/>
<stop offset="1" stop-color="#7405B4"/>
</linearGradient>
<linearGradient id="paint3_linear_306_162" x1="0" y1="0" x2="310.231" y2="17.5548" gradientUnits="userSpaceOnUse">
<stop stop-color="#CA5CF5"/>
<stop offset="1" stop-color="#7405B4"/>
</linearGradient>
<linearGradient id="paint4_linear_306_162" x1="0" y1="0" x2="310.231" y2="17.5548" gradientUnits="userSpaceOnUse">
<stop stop-color="#CA5CF5"/>
<stop offset="1" stop-color="#7405B4"/>
</linearGradient>
</defs>
</svg>