<svg width="156" height="170" viewBox="0 0 156 170" fill="none" xmlns="http://www.w3.org/2000/svg">
<path d="M50.4975 82.5V110H132.99V0H22.9999V55H50.4975V27.5H105.493V82.5H50.4975Z" fill="url(#paint0_linear_319_175)"/>
<path d="M11.3271 169H0L17.2592 119H30.8811L48.1159 169H36.7888L24.2654 130.426H23.8748L11.3271 169ZM10.6192 149.347H37.3746V157.599H10.6192V149.347Z" fill="url(#paint1_linear_319_175)"/>
<path d="M77.9839 153.033V131.5H88.3833V169H78.3988V162.188H78.0083C77.162 164.386 75.7542 166.152 73.785 167.486C71.8321 168.821 69.4478 169.488 66.6323 169.488C64.126 169.488 61.9208 168.919 60.0167 167.779C58.1126 166.64 56.6234 165.021 55.5493 162.921C54.4915 160.821 53.9544 158.307 53.9381 155.377V131.5H64.3376V153.521C64.3539 155.735 64.9479 157.485 66.1197 158.771C67.2914 160.056 68.8619 160.699 70.8312 160.699C72.0843 160.699 73.2561 160.414 74.3465 159.845C75.4369 159.259 76.3157 158.396 76.983 157.257C77.6665 156.118 78.0001 154.71 77.9839 153.033Z" fill="url(#paint2_linear_319_175)"/>
<path d="M96.7017 169V131.5H106.784V138.043H107.174C107.858 135.715 109.005 133.958 110.616 132.77C112.228 131.565 114.083 130.963 116.182 130.963C116.703 130.963 117.265 130.995 117.867 131.061C118.469 131.126 118.998 131.215 119.454 131.329V140.558C118.965 140.411 118.29 140.281 117.427 140.167C116.565 140.053 115.776 139.996 115.059 139.996C113.53 139.996 112.163 140.33 110.958 140.997C109.77 141.648 108.826 142.56 108.126 143.731C107.443 144.903 107.101 146.254 107.101 147.784V169H96.7017Z" fill="url(#paint3_linear_319_175)"/>
<path d="M134.449 169.708C132.056 169.708 129.924 169.293 128.053 168.463C126.181 167.617 124.7 166.371 123.61 164.728C122.536 163.067 121.999 161 121.999 158.526C121.999 156.443 122.381 154.693 123.146 153.277C123.911 151.861 124.952 150.722 126.271 149.859C127.589 148.997 129.086 148.346 130.762 147.906C132.455 147.467 134.229 147.158 136.084 146.979C138.265 146.751 140.023 146.539 141.357 146.344C142.692 146.132 143.66 145.823 144.262 145.416C144.864 145.009 145.165 144.407 145.165 143.609V143.463C145.165 141.917 144.677 140.72 143.701 139.874C142.741 139.028 141.373 138.604 139.6 138.604C137.728 138.604 136.239 139.02 135.132 139.85C134.025 140.663 133.293 141.689 132.935 142.926L123.317 142.145C123.805 139.866 124.765 137.896 126.197 136.236C127.63 134.56 129.477 133.274 131.739 132.379C134.017 131.467 136.654 131.012 139.648 131.012C141.731 131.012 143.725 131.256 145.629 131.744C147.55 132.232 149.25 132.989 150.731 134.015C152.229 135.04 153.409 136.358 154.271 137.97C155.134 139.565 155.565 141.477 155.565 143.707V169H145.703V163.8H145.41C144.807 164.972 144.002 166.005 142.993 166.9C141.984 167.779 140.771 168.471 139.355 168.976C137.94 169.464 136.304 169.708 134.449 169.708ZM137.427 162.53C138.957 162.53 140.307 162.229 141.479 161.627C142.651 161.008 143.571 160.178 144.238 159.137C144.905 158.095 145.239 156.915 145.239 155.597V151.617C144.913 151.829 144.466 152.024 143.896 152.203C143.343 152.366 142.716 152.521 142.016 152.667C141.317 152.797 140.617 152.919 139.917 153.033C139.217 153.131 138.582 153.22 138.013 153.302C136.792 153.481 135.726 153.766 134.815 154.156C133.903 154.547 133.195 155.076 132.691 155.743C132.186 156.394 131.934 157.208 131.934 158.185C131.934 159.601 132.447 160.683 133.472 161.432C134.514 162.164 135.832 162.53 137.427 162.53Z" fill="url(#paint4_linear_319_175)"/>
<defs>
<linearGradient id="paint0_linear_319_175" x1="0" y1="0" x2="158.684" y2="2.96857" gradientUnits="userSpaceOnUse">
<stop stop-color="#CA5CF5"/>
<stop offset="1" stop-color="#7405B4"/>
</linearGradient>
<linearGradient id="paint1_linear_319_175" x1="0" y1="0" x2="158.684" y2="2.96857" gradientUnits="userSpaceOnUse">
<stop stop-color="#CA5CF5"/>
<stop offset="1" stop-color="#7405B4"/>
</linearGradient>
<linearGradient id="paint2_linear_319_175" x1="0" y1="0" x2="158.684" y2="2.96857" gradientUnits="userSpaceOnUse">
<stop stop-color="#CA5CF5"/>
<stop offset="1" stop-color="#7405B4"/>
</linearGradient>
<linearGradient id="paint3_linear_319_175" x1="0" y1="0" x2="158.684" y2="2.96857" gradientUnits="userSpaceOnUse">
<stop stop-color="#CA5CF5"/>
<stop offset="1" stop-color="#7405B4"/>
</linearGradient>
<linearGradient id="paint4_linear_319_175" x1="0" y1="0" x2="158.684" y2="2.96857" gradientUnits="userSpaceOnUse">
<stop stop-color="#CA5CF5"/>
<stop offset="1" stop-color="#7405B4"/>
</linearGradient>
</defs>
</svg>